<?xml version="1.0" encoding="utf-8"?>
<!-- Generator: Adobe Illustrator 22.1.0, SVG Export Plug-In . SVG Version: 6.00 Build 0)  -->
<svg version="1.1" id="Layer_1" xmlns="http://www.w3.org/2000/svg" xmlns:xlink="http://www.w3.org/1999/xlink" x="0px" y="0px"
	 viewBox="0 0 269 194" style="enable-background:new 0 0 269 194;" xml:space="preserve">
<style type="text/css">
	.st0{fill:#FFFFFF;}
	.st1{fill:#F9037E;}
</style>
<g>
	<path class="st0" d="M25.7,20.1H11.2v-18h14.5V20.1z M25.5,147.5H11.4V43h14.1V147.5z"/>
	<path class="st0" d="M104.4,77.4H90.3V55.8L64,56.7v90.9H49.7V43H64v2.9c4.7-0.7,9.5-1.5,14.3-2.3c5.7-0.9,10.5-1.3,14.3-1.3
		c7.9,0,11.8,3.9,11.8,11.7C104.4,54,104.4,77.4,104.4,77.4z"/>
	<path class="st0" d="M137.7,20.1h-14.5v-18h14.5V20.1z M137.5,147.5h-14.1V43h14.1V147.5z"/>
	<path class="st0" d="M218.1,135.4c0,8.1-4,12.1-12.1,12.1h-32.8c-8.1,0-12.1-4-12.1-12.1v-23.7h14.1v23.5H204v-20.8l-37.4-30.6
		c-3.6-2.9-5.4-6.6-5.4-11.2V55.2c0-8.1,4-12.1,12.1-12.1h32.3c8.1,0,12.1,4,12.1,12.1V76H204V55.4h-28.9v18.3l37.7,30.6
		c3.5,2.8,5.3,6.6,5.3,11.4V135.4z"/>
</g>
<g>
	<path class="st1" d="M258.5,175c0,8.1-4,12.1-12.1,12.1H11.5v-12.6h232.9V43h14.1V175z M258.7,20.1h-14.5v-18h14.5V20.1z"/>
</g>
</svg>
